<svg xmlns="http://www.w3.org/2000/svg" viewBox="0 0 180 180" width="180" height="180">
  <defs>
    <radialGradient id="ballGradientApple" cx="0.3" cy="0.3" r="0.7">
      <stop offset="0%" stop-color="#ffffff"/>
      <stop offset="100%" stop-color="#e5e7eb"/>
    </radialGradient>
  </defs>
  
  <!-- Background with rounded corners for Apple style -->
  <rect x="0" y="0" width="180" height="180" rx="30" ry="30" fill="#16a34a"/>
  
  <!-- Golf ball -->
  <circle cx="90" cy="90" r="70" fill="url(#ballGradientApple)" stroke="#16a34a" stroke-width="3"/>
  
  <!-- Golf ball dimples -->
  <circle cx="67" cy="56" r="7" fill="#d1d5db" opacity="0.6"/>
  <circle cx="101" cy="67" r="7" fill="#d1d5db" opacity="0.6"/>
  <circle cx="78" cy="78" r="7" fill="#d1d5db" opacity="0.6"/>
  <circle cx="112" cy="90" r="7" fill="#d1d5db" opacity="0.6"/>
  <circle cx="90" cy="101" r="7" fill="#d1d5db" opacity="0.6"/>
  <circle cx="67" cy="112" r="7" fill="#d1d5db" opacity="0.6"/>
  <circle cx="101" cy="123" r="7" fill="#d1d5db" opacity="0.6"/>
  <circle cx="56" cy="90" r="7" fill="#d1d5db" opacity="0.6"/>
  <circle cx="123" cy="112" r="7" fill="#d1d5db" opacity="0.6"/>
  
  <!-- Additional dimples -->
  <circle cx="84" cy="45" r="5" fill="#d1d5db" opacity="0.4"/>
  <circle cx="117" cy="61" r="5" fill="#d1d5db" opacity="0.4"/>
  <circle cx="62" cy="73" r="5" fill="#d1d5db" opacity="0.4"/>
  <circle cx="95" cy="84" r="5" fill="#d1d5db" opacity="0.4"/>
  <circle cx="73" cy="95" r="5" fill="#d1d5db" opacity="0.4"/>
  <circle cx="106" cy="106" r="5" fill="#d1d5db" opacity="0.4"/>
  <circle cx="84" cy="117" r="5" fill="#d1d5db" opacity="0.4"/>
  <circle cx="51" cy="106" r="5" fill="#d1d5db" opacity="0.4"/>
  <circle cx="128" cy="95" r="5" fill="#d1d5db" opacity="0.4"/>
  
  <!-- Small detail dimples -->
  <circle cx="78" cy="56" r="3" fill="#d1d5db" opacity="0.3"/>
  <circle cx="101" cy="51" r="3" fill="#d1d5db" opacity="0.3"/>
  <circle cx="123" cy="73" r="3" fill="#d1d5db" opacity="0.3"/>
  <circle cx="112" cy="123" r="3" fill="#d1d5db" opacity="0.3"/>
  <circle cx="67" cy="134" r="3" fill="#d1d5db" opacity="0.3"/>
  <circle cx="45" cy="117" r="3" fill="#d1d5db" opacity="0.3"/>
  <circle cx="134" cy="78" r="3" fill="#d1d5db" opacity="0.3"/>
</svg>