<svg xmlns="http://www.w3.org/2000/svg" viewBox="0 0 32 32" width="32" height="32">
  <defs>
    <radialGradient id="ballGradient" cx="0.3" cy="0.3" r="0.7">
      <stop offset="0%" stop-color="#ffffff"/>
      <stop offset="100%" stop-color="#e5e7eb"/>
    </radialGradient>
  </defs>
  
  <!-- Golf ball -->
  <circle cx="16" cy="16" r="14" fill="url(#ballGradient)" stroke="#16a34a" stroke-width="2"/>
  
  <!-- Golf ball dimples -->
  <circle cx="12" cy="10" r="1.5" fill="#d1d5db" opacity="0.6"/>
  <circle cx="18" cy="12" r="1.5" fill="#d1d5db" opacity="0.6"/>
  <circle cx="14" cy="14" r="1.5" fill="#d1d5db" opacity="0.6"/>
  <circle cx="20" cy="16" r="1.5" fill="#d1d5db" opacity="0.6"/>
  <circle cx="16" cy="18" r="1.5" fill="#d1d5db" opacity="0.6"/>
  <circle cx="12" cy="20" r="1.5" fill="#d1d5db" opacity="0.6"/>
  <circle cx="18" cy="22" r="1.5" fill="#d1d5db" opacity="0.6"/>
  <circle cx="10" cy="16" r="1.5" fill="#d1d5db" opacity="0.6"/>
  <circle cx="22" cy="20" r="1.5" fill="#d1d5db" opacity="0.6"/>
  
  <!-- Additional smaller dimples -->
  <circle cx="15" cy="8" r="1" fill="#d1d5db" opacity="0.4"/>
  <circle cx="21" cy="11" r="1" fill="#d1d5db" opacity="0.4"/>
  <circle cx="11" cy="13" r="1" fill="#d1d5db" opacity="0.4"/>
  <circle cx="17" cy="15" r="1" fill="#d1d5db" opacity="0.4"/>
  <circle cx="13" cy="17" r="1" fill="#d1d5db" opacity="0.4"/>
  <circle cx="19" cy="19" r="1" fill="#d1d5db" opacity="0.4"/>
  <circle cx="15" cy="21" r="1" fill="#d1d5db" opacity="0.4"/>
  <circle cx="9" cy="19" r="1" fill="#d1d5db" opacity="0.4"/>
  <circle cx="23" cy="17" r="1" fill="#d1d5db" opacity="0.4"/>
</svg>